{
  "accessors": [
    {
      "bufferView": 2,
      "componentType": 5126,
      "count": 123,
      "max": [
        5.204229831695557,
        8.76317024230957,
        0.4000000059604645
      ],
      "min": [
        -8.795769691467285,
        -4.539690017700195,
        -1.4438199628794479e-15
      ],
      "type": "VEC3"
    },
    {
      "bufferView": 2,
      "byteOffset": 1476,
      "componentType": 5126,
      "count": 123,
      "max": [
        1.0,
        1.0,
        1.0
      ],
      "min": [
        -1.0,
        -1.0,
        -9.023889855770922e-16
      ],
      "type": "VEC3"
    },
    {
      "bufferView": 1,
      "componentType": 5126,
      "count": 123,
      "max": [
        28.857500076293945,
        28.750499725341797
      ],
      "min": [
        -28.857500076293945,
        -14.894000053405762
      ],
      "type": "VEC2"
    },
    {
      "bufferView": 0,
      "componentType": 5125,
      "count": 297,
      "type": "SCALAR"
    },
    {
      "bufferView": 2,
      "byteOffset": 2952,
      "componentType": 5126,
      "count": 8,
      "max": [
        -2.3957700729370117,
        2.963170051574707,
        9.710000038146973
      ],
      "min": [
        -2.9091598987579346,
        2.663170099258423,
        8.609999656677246
      ],
      "type": "VEC3"
    },
    {
      "bufferView": 2,
      "byteOffset": 3048,
      "componentType": 5126,
      "count": 8,
      "max": [
        0.9038975834846497,
        -0.11899994313716888,
        0.4108632206916809
      ],
      "min": [
        0.8422983884811401,
        -0.34889116883277893,
        0.4108628034591675
      ],
      "type": "VEC3"
    },
    {
      "bufferView": 1,
      "byteOffset": 984,
      "componentType": 5126,
      "count": 8,
      "max": [
        103.35099792480469,
        410.0350036621094
      ],
      "min": [
        59.561500549316406,
        353.72198486328125
      ],
      "type": "VEC2"
    },
    {
      "bufferView": 0,
      "byteOffset": 1188,
      "componentType": 5125,
      "count": 12,
      "type": "SCALAR"
    },
    {
      "bufferView": 2,
      "byteOffset": 3144,
      "componentType": 5126,
      "count": 300,
      "max": [
        -2.3957700729370117,
        3.5631699562072754,
        9.90999984741211
      ],
      "min": [
        -3.5957698822021484,
        2.3631699085235596,
        8.399999618530273
      ],
      "type": "VEC3"
    },
    {
      "bufferView": 2,
      "byteOffset": 6744,
      "componentType": 5126,
      "count": 300,
      "max": [
        0.9503007531166077,
        0.9503007531166077,
        1.0
      ],
      "min": [
        -0.9503007531166077,
        -0.9503007531166077,
        -0.42692816257476807
      ],
      "type": "VEC3"
    },
    {
      "bufferView": 1,
      "byteOffset": 1048,
      "componentType": 5126,
      "count": 300,
      "max": [
        167.6719970703125,
        420.8890075683594
      ],
      "min": [
        -167.6719970703125,
        112.7229995727539
      ],
      "type": "VEC2"
    },
    {
      "bufferView": 0,
      "byteOffset": 1236,
      "componentType": 5125,
      "count": 486,
      "type": "SCALAR"
    },
    {
      "bufferView": 2,
      "byteOffset": 10344,
      "componentType": 5126,
      "count": 40,
      "max": [
        -2.49576997756958,
        3.463170051574707,
        8.399999618530273
      ],
      "min": [
        -3.49576997756958,
        2.463170051574707,
        8.069999694824219
      ],
      "type": "VEC3"
    },
    {
      "bufferView": 2,
      "byteOffset": 10824,
      "componentType": 5126,
      "count": 40,
      "max": [
        1.0,
        1.0,
        1.0
      ],
      "min": [
        -1.0,
        -1.0,
        0.0
      ],
      "type": "VEC3"
    },
    {
      "bufferView": 1,
      "byteOffset": 3448,
      "componentType": 5126,
      "count": 40,
      "max": [
        137.62899780273438,
        330.7090148925781
      ],
      "min": [
        -137.62899780273438,
        96.9749984741211
      ],
      "type": "VEC2"
    },
    {
      "bufferView": 0,
      "byteOffset": 3180,
      "componentType": 5125,
      "count": 84,
      "type": "SCALAR"
    },
    {
      "bufferView": 2,
      "byteOffset": 11304,
      "componentType": 5126,
      "count": 2771,
      "max": [
        5.703979969024658,
        9.86316967010498,
        9.710000038146973
      ],
      "min": [
        -9.895770072937012,
        -4.843830108642578,
        -1.4438199628794479e-15
      ],
      "type": "VEC3"
    },
    {
      "bufferView": 2,
      "byteOffset": 44556,
      "componentType": 5126,
      "count": 2771,
      "max": [
        1.0,
        1.0,
        1.0
      ],
      "min": [
        -1.0,
        -1.0,
        -1.0
      ],
      "type": "VEC3"
    },
    {
      "bufferView": 1,
      "byteOffset": 3768,
      "componentType": 5126,
      "count": 2771,
      "max": [
        389.59698486328125,
        388.3139953613281
      ],
      "min": [
        -389.59698486328125,
        -203.13299560546875
      ],
      "type": "VEC2"
    },
    {
      "bufferView": 0,
      "byteOffset": 3516,
      "componentType": 5125,
      "count": 5382,
      "type": "SCALAR"
    },
    {
      "bufferView": 2,
      "byteOffset": 77808,
      "componentType": 5126,
      "count": 344,
      "max": [
        3.9042301177978516,
        9.86316967010498,
        7.070000171661377
      ],
      "min": [
        -9.895770072937012,
        -3.9368300437927246,
        0.4000000059604645
      ],
      "type": "VEC3"
    },
    {
      "bufferView": 2,
      "byteOffset": 81936,
      "componentType": 5126,
      "count": 344,
      "max": [
        1.0,
        1.0,
        2.3607399270986207e-06
      ],
      "min": [
        -1.0,
        -1.0,
        -1.0
      ],
      "type": "VEC3"
    },
    {
      "bufferView": 1,
      "byteOffset": 25936,
      "componentType": 5126,
      "count": 344,
      "max": [
        389.59698486328125,
        388.3139953613281
      ],
      "min": [
        -326.6050109863281,
        -154.9929962158203
      ],
      "type": "VEC2"
    },
    {
      "bufferView": 0,
      "byteOffset": 25044,
      "componentType": 5125,
      "count": 801,
      "type": "SCALAR"
    },
    {
      "bufferView": 2,
      "byteOffset": 86064,
      "componentType": 5126,
      "count": 110,
      "max": [
        5.203979969024658,
        0.6561750173568726,
        6.275819778442383
      ],
      "min": [
        3.77170991897583,
        -4.353829860687256,
        3.259999990463257
      ],
      "type": "VEC3"
    },
    {
      "bufferView": 2,
      "byteOffset": 87384,
      "componentType": 5126,
      "count": 110,
      "max": [
        1.0,
        1.661650049496297e-15,
        1.0
      ],
      "min": [
        -1.0,
        -1.0,
        -1.0
      ],
      "type": "VEC3"
    },
    {
      "bufferView": 1,
      "byteOffset": 28688,
      "componentType": 5126,
      "count": 110,
      "max": [
        183.92599487304688,
        247.0800018310547
      ],
      "min": [
        -183.92599487304688,
        -171.41000366210938
      ],
      "type": "VEC2"
    },
    {
      "bufferView": 0,
      "byteOffset": 28248,
      "componentType": 5125,
      "count": 276,
      "type": "SCALAR"
    },
    {
      "bufferView": 2,
      "byteOffset": 88704,
      "componentType": 5126,
      "count": 156,
      "max": [
        0.0042335097678005695,
        5.963170051574707,
        6.730000019073486
      ],
      "min": [
        -5.99576997756958,
        -0.03683460131287575,
        0.7400000095367432
      ],
      "type": "VEC3"
    },
    {
      "bufferView": 2,
      "byteOffset": 90576,
      "componentType": 5126,
      "count": 156,
      "max": [
        1.0,
        1.0,
        7.078129748983031e-11
      ],
      "min": [
        -1.0,
        -1.0,
        -1.2188999809481516e-10
      ],
      "type": "VEC3"
    },
    {
      "bufferView": 1,
      "byteOffset": 29568,
      "componentType": 5126,
      "count": 156,
      "max": [
        1.6808300018310547,
        2.208009958267212
      ],
      "min": [
        -1.700510025024414,
        0.24278199672698975
      ],
      "type": "VEC2"
    },
    {
      "bufferView": 0,
      "byteOffset": 29352,
      "componentType": 5125,
      "count": 234,
      "type": "SCALAR"
    },
    {
      "bufferView": 2,
      "byteOffset": 92448,
      "componentType": 5126,
      "count": 23,
      "max": [
        3.9042301177978516,
        9.86316967010498,
        5.119999885559082
      ],
      "min": [
        -9.895770072937012,
        -3.9368300437927246,
        3.4200000762939453
      ],
      "type": "VEC3"
    },
    {
      "bufferView": 2,
      "byteOffset": 92724,
      "componentType": 5126,
      "count": 23,
      "max": [
        0.3995850682258606,
        0.3995850682258606,
        0.9166961312294006
      ],
      "min": [
        -0.3995850682258606,
        -0.3995850682258606,
        0.9166961312294006
      ],
      "type": "VEC3"
    },
    {
      "bufferView": 1,
      "byteOffset": 30816,
      "componentType": 5126,
      "count": 23,
      "max": [
        12.986599922180176,
        3.2607200145721436
      ],
      "min": [
        -12.986599922180176,
        -12.303299903869629
      ],
      "type": "VEC2"
    },
    {
      "bufferView": 0,
      "byteOffset": 30288,
      "componentType": 5125,
      "count": 45,
      "type": "SCALAR"
    },
    {
      "bufferView": 2,
      "byteOffset": 93000,
      "componentType": 5126,
      "count": 6,
      "max": [
        5.703979969024658,
        1.1561700105667114,
        6.315820217132568
      ],
      "min": [
        0.05398020148277283,
        -4.843830108642578,
        6.315820217132568
      ],
      "type": "VEC3"
    },
    {
      "bufferView": 2,
      "byteOffset": 93072,
      "componentType": 5126,
      "count": 6,
      "max": [
        0.0,
        0.0,
        1.0
      ],
      "min": [
        0.0,
        0.0,
        1.0
      ],
      "type": "VEC3"
    },
    {
      "bufferView": 1,
      "byteOffset": 31000,
      "componentType": 5126,
      "count": 6,
      "max": [
        3.742769956588745,
        0.7586449980735779
      ],
      "min": [
        0.03542010113596916,
        -3.1783599853515625
      ],
      "type": "VEC2"
    },
    {
      "bufferView": 0,
      "byteOffset": 30468,
      "componentType": 5125,
      "count": 12,
      "type": "SCALAR"
    },
    {
      "bufferView": 2,
      "byteOffset": 93144,
      "componentType": 5126,
      "count": 6,
      "max": [
        -5.99576997756958,
        3.763170003890991,
        2.7200000286102295
      ],
      "min": [
        -5.99576997756958,
        2.163170099258423,
        0.4000000059604645
      ],
      "type": "VEC3"
    },
    {
      "bufferView": 2,
      "byteOffset": 93216,
      "componentType": 5126,
      "count": 6,
      "max": [
        -1.0,
        0.0,
        0.0
      ],
      "min": [
        -1.0,
        0.0,
        0.0
      ],
      "type": "VEC3"
    },
    {
      "bufferView": 1,
      "byteOffset": 31048,
      "componentType": 5126,
      "count": 6,
      "max": [
        -1.1828299760818481,
        1.4873100519180298
      ],
      "min": [
        -2.0577199459075928,
        0.21872299909591675
      ],
      "type": "VEC2"
    },
    {
      "bufferView": 0,
      "byteOffset": 30516,
      "componentType": 5125,
      "count": 12,
      "type": "SCALAR"
    },
    {
      "bufferView": 2,
      "byteOffset": 93288,
      "componentType": 5126,
      "count": 929,
      "max": [
        0.014233499765396118,
        5.973169803619385,
        6.769999980926514
      ],
      "min": [
        -6.015769958496094,
        -0.04683459922671318,
        0.4000000059604645
      ],
      "type": "VEC3"
    },
    {
      "bufferView": 2,
      "byteOffset": 104436,
      "componentType": 5126,
      "count": 929,
      "max": [
        1.0,
        1.0,
        1.0
      ],
      "min": [
        -1.0,
        -1.0,
        -1.0
      ],
      "type": "VEC3"
    },
    {
      "bufferView": 1,
      "byteOffset": 31096,
      "componentType": 5126,
      "count": 929,
      "max": [
        3.2894599437713623,
        3.7018799781799316
      ],
      "min": [
        -3.2894599437713623,
        -0.02560950070619583
      ],
      "type": "VEC2"
    },
    {
      "bufferView": 0,
      "byteOffset": 30564,
      "componentType": 5125,
      "count": 1788,
      "type": "SCALAR"
    }
  ],
  "asset": {
    "extras": {
      "author": "nana_zhr (https://sketchfab.com/nana_zhr)",
      "license": "CC-BY-4.0 (http://creativecommons.org/licenses/by/4.0/)",
      "source": "https://sketchfab.com/3d-models/masjid-akhlaqul-karimah-f9067dde743947fbac386e48c8e0a7aa",
      "title": "Masjid Akhlaqul Karimah"
    },
    "generator": "Sketchfab-13.45.0",
    "version": "2.0"
  },
  "bufferViews": [
    {
      "buffer": 0,
      "byteLength": 37716,
      "name": "floatBufferViews",
      "target": 34963
    },
    {
      "buffer": 0,
      "byteLength": 38528,
      "byteOffset": 37716,
      "byteStride": 8,
      "name": "floatBufferViews",
      "target": 34962
    },
    {
      "buffer": 0,
      "byteLength": 115584,
      "byteOffset": 76244,
      "byteStride": 12,
      "name": "floatBufferViews",
      "target": 34962
    }
  ],
  "buffers": [
    {
      "byteLength": 191828,
      "uri": "scene.bin"
    }
  ],
  "materials": [
    {
      "doubleSided": true,
      "name": "Basic_Tile",
      "pbrMetallicRoughness": {
        "baseColorFactor": [
          0.796078,
          0.807843,
          0.792157,
          1.0
        ],
        "metallicFactor": 0.0
      }
    },
    {
      "doubleSided": true,
      "name": "Color_D03",
      "pbrMetallicRoughness": {
        "baseColorFactor": [
          1.0,
          0.847059,
          0.396078,
          1.0
        ],
        "metallicFactor": 0.0
      }
    },
    {
      "doubleSided": true,
      "name": "Color_D05",
      "pbrMetallicRoughness": {
        "baseColorFactor": [
          1.0,
          0.74902,
          0.0,
          1.0
        ],
        "metallicFactor": 0.0
      }
    },
    {
      "doubleSided": true,
      "name": "Color_M01",
      "pbrMetallicRoughness": {
        "baseColorFactor": [
          0.886275,
          0.886275,
          0.886275,
          1.0
        ],
        "metallicFactor": 0.0
      }
    },
    {
      "doubleSided": true,
      "name": "FrontColor",
      "pbrMetallicRoughness": {
        "metallicFactor": 0.0
      }
    },
    {
      "doubleSided": true,
      "name": "M_0067_PaleGreen",
      "pbrMetallicRoughness": {
        "baseColorFactor": [
          0.596078,
          0.984314,
          0.596078,
          1.0
        ],
        "metallicFactor": 0.0
      }
    },
    {
      "doubleSided": true,
      "name": "M_0077_DarkGreen",
      "pbrMetallicRoughness": {
        "baseColorFactor": [
          0.0,
          0.392157,
          0.0,
          1.0
        ],
        "metallicFactor": 0.0
      }
    },
    {
      "doubleSided": true,
      "name": "Mirror_02",
      "pbrMetallicRoughness": {
        "baseColorFactor": [
          0.898039,
          0.898039,
          0.898039,
          1.0
        ],
        "metallicFactor": 0.0
      }
    },
    {
      "doubleSided": true,
      "name": "Roofing_Tile_Spanish",
      "pbrMetallicRoughness": {
        "baseColorFactor": [
          0.541176,
          0.25098,
          0.141176,
          1.0
        ],
        "metallicFactor": 0.0
      }
    },
    {
      "doubleSided": true,
      "name": "Steel_Brushed_Stainless",
      "pbrMetallicRoughness": {
        "baseColorFactor": [
          0.717647,
          0.733333,
          0.745098,
          1.0
        ],
        "metallicFactor": 0.0
      }
    },
    {
      "doubleSided": true,
      "name": "Wood_Cherry_Original",
      "pbrMetallicRoughness": {
        "baseColorFactor": [
          0.596078,
          0.337255,
          0.164706,
          1.0
        ],
        "metallicFactor": 0.0
      }
    },
    {
      "doubleSided": true,
      "name": "Wood_Veneer_01",
      "pbrMetallicRoughness": {
        "baseColorFactor": [
          0.470588,
          0.27451,
          0.145098,
          1.0
        ],
        "metallicFactor": 0.0
      }
    }
  ],
  "meshes": [
    {
      "name": "Object_0",
      "primitives": [
        {
          "attributes": {
            "NORMAL": 1,
            "POSITION": 0,
            "TEXCOORD_0": 2
          },
          "indices": 3,
          "material": 0,
          "mode": 4
        }
      ]
    },
    {
      "name": "Object_1",
      "primitives": [
        {
          "attributes": {
            "NORMAL": 5,
            "POSITION": 4,
            "TEXCOORD_0": 6
          },
          "indices": 7,
          "material": 1,
          "mode": 4
        }
      ]
    },
    {
      "name": "Object_2",
      "primitives": [
        {
          "attributes": {
            "NORMAL": 9,
            "POSITION": 8,
            "TEXCOORD_0": 10
          },
          "indices": 11,
          "material": 2,
          "mode": 4
        }
      ]
    },
    {
      "name": "Object_3",
      "primitives": [
        {
          "attributes": {
            "NORMAL": 13,
            "POSITION": 12,
            "TEXCOORD_0": 14
          },
          "indices": 15,
          "material": 3,
          "mode": 4
        }
      ]
    },
    {
      "name": "Object_4",
      "primitives": [
        {
          "attributes": {
            "NORMAL": 17,
            "POSITION": 16,
            "TEXCOORD_0": 18
          },
          "indices": 19,
          "material": 4,
          "mode": 4
        }
      ]
    },
    {
      "name": "Object_5",
      "primitives": [
        {
          "attributes": {
            "NORMAL": 21,
            "POSITION": 20,
            "TEXCOORD_0": 22
          },
          "indices": 23,
          "material": 5,
          "mode": 4
        }
      ]
    },
    {
      "name": "Object_6",
      "primitives": [
        {
          "attributes": {
            "NORMAL": 25,
            "POSITION": 24,
            "TEXCOORD_0": 26
          },
          "indices": 27,
          "material": 6,
          "mode": 4
        }
      ]
    },
    {
      "name": "Object_7",
      "primitives": [
        {
          "attributes": {
            "NORMAL": 29,
            "POSITION": 28,
            "TEXCOORD_0": 30
          },
          "indices": 31,
          "material": 7,
          "mode": 4
        }
      ]
    },
    {
      "name": "Object_8",
      "primitives": [
        {
          "attributes": {
            "NORMAL": 33,
            "POSITION": 32,
            "TEXCOORD_0": 34
          },
          "indices": 35,
          "material": 8,
          "mode": 4
        }
      ]
    },
    {
      "name": "Object_9",
      "primitives": [
        {
          "attributes": {
            "NORMAL": 37,
            "POSITION": 36,
            "TEXCOORD_0": 38
          },
          "indices": 39,
          "material": 9,
          "mode": 4
        }
      ]
    },
    {
      "name": "Object_10",
      "primitives": [
        {
          "attributes": {
            "NORMAL": 41,
            "POSITION": 40,
            "TEXCOORD_0": 42
          },
          "indices": 43,
          "material": 10,
          "mode": 4
        }
      ]
    },
    {
      "name": "Object_11",
      "primitives": [
        {
          "attributes": {
            "NORMAL": 45,
            "POSITION": 44,
            "TEXCOORD_0": 46
          },
          "indices": 47,
          "material": 11,
          "mode": 4
        }
      ]
    }
  ],
  "nodes": [
    {
      "children": [
        1
      ],
      "matrix": [
        1.0,
        0.0,
        0.0,
        0.0,
        0.0,
        2.220446049250313e-16,
        -1.0,
        0.0,
        0.0,
        1.0,
        2.220446049250313e-16,
        0.0,
        0.0,
        0.0,
        0.0,
        1.0
      ],
      "name": "Sketchfab_model"
    },
    {
      "children": [
        2,
        3,
        4,
        5,
        6,
        7,
        8,
        9,
        10,
        11,
        12,
        13
      ],
      "name": "masjid.obj.cleaner.materialmerger.gles"
    },
    {
      "mesh": 0,
      "name": "Object_2"
    },
    {
      "mesh": 1,
      "name": "Object_3"
    },
    {
      "mesh": 2,
      "name": "Object_4"
    },
    {
      "mesh": 3,
      "name": "Object_5"
    },
    {
      "mesh": 4,
      "name": "Object_6"
    },
    {
      "mesh": 5,
      "name": "Object_7"
    },
    {
      "mesh": 6,
      "name": "Object_8"
    },
    {
      "mesh": 7,
      "name": "Object_9"
    },
    {
      "mesh": 8,
      "name": "Object_10"
    },
    {
      "mesh": 9,
      "name": "Object_11"
    },
    {
      "mesh": 10,
      "name": "Object_12"
    },
    {
      "mesh": 11,
      "name": "Object_13"
    }
  ],
  "scene": 0,
  "scenes": [
    {
      "name": "Sketchfab_Scene",
      "nodes": [
        0
      ]
    }
  ]
}
